<svg width="163" height="40" viewBox="0 0 163 40" fill="none" xmlns="http://www.w3.org/2000/svg">
<path d="M52.6339 28.2726V9.26119H46V5.39022H63.7666V9.26119H57.1479V28.2726H52.6339Z" fill="#19272B"/>
<path d="M69.0584 28.2726H64.7731V11.6961H68.7534V14.0531C69.4346 12.9396 70.0446 12.206 70.5834 11.8522C71.1324 11.4984 71.7526 11.3215 72.444 11.3215C73.42 11.3215 74.3604 11.5973 75.2653 12.1488L73.9385 15.9729C73.2166 15.4943 72.5456 15.2549 71.9254 15.2549C71.3256 15.2549 70.8173 15.4266 70.4004 15.77C69.9836 16.103 69.6532 16.7118 69.4092 17.5963C69.1753 18.4807 69.0584 20.333 69.0584 23.153V28.2726Z" fill="#19272B"/>
<path d="M80.3283 16.7534L76.4395 16.0354C76.8767 14.4329 77.629 13.2466 78.6966 12.4766C79.7641 11.7066 81.3501 11.3215 83.4546 11.3215C85.366 11.3215 86.7894 11.5557 87.7247 12.0239C88.6601 12.4818 89.3158 13.0697 89.692 13.7877C90.0783 14.4953 90.2715 15.8012 90.2715 17.7055L90.2258 22.8252C90.2258 24.282 90.2918 25.359 90.424 26.0562C90.5663 26.743 90.8256 27.4818 91.2018 28.2726H86.9622C86.8504 27.9813 86.7131 27.5494 86.5504 26.9771C86.4793 26.717 86.4284 26.5453 86.3979 26.462C85.6659 27.1904 84.8831 27.7367 84.0494 28.1009C83.2157 28.4651 82.3261 28.6472 81.3806 28.6472C79.7132 28.6472 78.3966 28.1842 77.4308 27.2581C76.4751 26.3319 75.9973 25.1613 75.9973 23.7461C75.9973 22.8096 76.2159 21.9771 76.653 21.2487C77.0902 20.5099 77.7002 19.948 78.4831 19.563C79.2761 19.1675 80.4148 18.8241 81.8991 18.5328C83.902 18.1478 85.2898 17.7888 86.0624 17.4558V17.0187C86.0624 16.1759 85.8591 15.5775 85.4524 15.2237C85.0458 14.8595 84.2782 14.6774 83.1496 14.6774C82.3871 14.6774 81.7924 14.8335 81.3654 15.1457C80.9383 15.4475 80.5927 15.9834 80.3283 16.7534ZM86.0624 20.3122C85.5134 20.4995 84.6442 20.7232 83.4546 20.9834C82.2651 21.2435 81.4874 21.4984 81.1214 21.7482C80.5622 22.154 80.2826 22.6691 80.2826 23.2934C80.2826 23.9074 80.5063 24.4381 80.9536 24.8855C81.4009 25.333 81.9703 25.5567 82.6616 25.5567C83.4343 25.5567 84.1714 25.2966 84.8729 24.7763C85.3914 24.3809 85.732 23.897 85.8947 23.3247C86.0065 22.9501 86.0624 22.2373 86.0624 21.1863V20.3122Z" fill="#19272B"/>
<path d="M108.633 16.5973L104.408 17.3777C104.266 16.514 103.941 15.8637 103.432 15.4266C102.934 14.9896 102.284 14.7711 101.48 14.7711C100.413 14.7711 99.5589 15.1509 98.9184 15.9105C98.2881 16.6597 97.9729 17.9188 97.9729 19.6878C97.9729 21.6545 98.2931 23.0437 98.9337 23.8554C99.5843 24.667 100.454 25.0728 101.541 25.0728C102.355 25.0728 103.021 24.8387 103.539 24.3704C104.058 23.8918 104.424 23.0749 104.637 21.9199L108.846 22.6535C108.409 24.6306 107.57 26.1238 106.33 27.1332C105.09 28.1426 103.427 28.6472 101.343 28.6472C98.9743 28.6472 97.0833 27.8824 95.6701 26.3528C94.2671 24.8231 93.5656 22.7055 93.5656 20C93.5656 17.2633 94.2722 15.1353 95.6854 13.616C97.0985 12.0864 99.0099 11.3215 101.419 11.3215C103.392 11.3215 104.958 11.7586 106.117 12.6327C107.286 13.4964 108.124 14.8179 108.633 16.5973Z" fill="#19272B"/>
<path d="M111.744 28.2726V5.39022H116.029V17.5338L121.047 11.6961H126.323L120.787 17.7523L126.72 28.2726H122.099L118.027 20.8273L116.029 22.9657V28.2726H111.744Z" fill="#19272B"/>
<path d="M129.282 9.44849V5.39022H133.567V9.44849H129.282ZM129.282 28.2726V11.6961H133.567V28.2726H129.282Z" fill="#00BED4"/>
<path d="M136.099 11.6961H138.478V10.4475C138.478 9.05307 138.62 8.01249 138.905 7.3257C139.199 6.63892 139.733 6.08221 140.506 5.65557C141.289 5.21852 142.275 5 143.464 5C144.684 5 145.879 5.1873 147.048 5.56191L146.469 8.62123C145.788 8.45473 145.132 8.37149 144.501 8.37149C143.881 8.37149 143.434 8.52237 143.159 8.82414C142.895 9.1155 142.763 9.68262 142.763 10.5255V11.6961H145.965V15.1457H142.763V28.2726H138.478V15.1457H136.099V11.6961Z" fill="#19272B"/>
<path d="M146.347 11.6961H150.907L154.78 23.4651L158.562 11.6961H163L157.281 27.6483L156.259 30.5359C155.883 31.5036 155.522 32.2425 155.177 32.7523C154.841 33.2622 154.45 33.6733 154.002 33.9854C153.565 34.308 153.021 34.5578 152.371 34.7347C151.73 34.9116 151.003 35 150.19 35C149.366 35 148.558 34.9116 147.765 34.7347L147.384 31.3007C148.055 31.436 148.66 31.5036 149.199 31.5036C150.195 31.5036 150.932 31.2019 151.41 30.5983C151.888 30.0052 152.254 29.2456 152.508 28.3195L146.347 11.6961Z" fill="#19272B"/>
<path d="M5.07491 33.3132C2.08366 29.9598 0.30889 25.6968 0.0367187 21.2114C-0.235453 16.726 1.01084 12.2796 3.57466 8.58911C6.13849 4.89863 9.87045 2.17908 14.1689 0.86893C18.4673 -0.441224 23.0817 -0.265641 27.2681 1.36737L26.0499 4.49044C22.5651 3.13114 18.7242 2.98499 15.1462 4.07555C11.5683 5.1661 8.46186 7.42982 6.32776 10.5017C4.19367 13.5736 3.15627 17.2747 3.38282 21.0083C3.60938 24.7419 5.08668 28.2904 7.57655 31.0817L5.07491 33.3132Z" fill="#00BED4"/>
<path d="M29.5264 2.41455C33.2871 4.45182 36.2957 7.64105 38.1105 11.5141C39.9252 15.3871 40.4506 19.7399 39.6094 23.9334C38.7682 28.127 36.6048 31.9404 33.4368 34.814C30.2687 37.6875 26.2629 39.4697 22.0074 39.899L21.671 36.5637C25.2132 36.2063 28.5476 34.7228 31.1846 32.3309C33.8216 29.9391 35.6224 26.7648 36.3226 23.2741C37.0228 19.7835 36.5855 16.1603 35.0749 12.9364C33.5643 9.71257 31.06 7.0579 27.9296 5.3621L29.5264 2.41455Z" fill="#19272B"/>
<path d="M18.8096 7.73809C18.8096 7.14635 19.2893 6.66666 19.881 6.66666V6.66666C20.4727 6.66666 20.9524 7.14635 20.9524 7.73808V17.9762H18.8096V7.73809Z" fill="#19272B"/>
<path d="M28.0115 23.8247C28.4914 24.1709 28.5997 24.8406 28.2534 25.3205V25.3205C27.9071 25.8003 27.2374 25.9086 26.7576 25.5623L19.6429 20.4281L20.8969 18.6905L28.0115 23.8247Z" fill="#19272B"/>
<circle cx="19.9405" cy="19.5833" r="2.20238" fill="#19272B"/>
<path d="M19.1431 39.159C18.8268 39.165 18.4538 39.1641 18.0864 39.1463C17.6753 39.1265 17.3128 39.0843 17.0474 39.0291V28.5028L19.1431 27.2938V39.159ZM14.3813 38.4315C14.1292 38.3714 13.8426 38.2951 13.5503 38.2039C13.0866 38.0594 12.636 37.8844 12.2856 37.6922V31.7166L14.3813 30.5077V38.4315ZM9.61865 36.1805C9.04343 35.8398 8.31837 35.3533 7.7085 34.7967L9.61865 33.6297V36.1805Z" fill="#00BED4" stroke="#00BED4"/>
</svg>
